<svg width="130" height="129" viewBox="0 0 130 129" fill="none" xmlns="http://www.w3.org/2000/svg">
<g filter="url(#filter0_d_6_35)">
<mask id="mask0_6_35" style="mask-type:luminance" maskUnits="userSpaceOnUse" x="41" y="35" width="48" height="48">
<path d="M88.9417 35.0167H41.0583V82.9H88.9417V35.0167Z" fill="white"/>
</mask>
<g mask="url(#mask0_6_35)">
<path d="M57.0594 66.3008C54.7001 66.3008 52.7561 64.0998 52.7561 61.3964C52.7561 58.6932 54.6624 56.4921 57.0594 56.4921C59.4752 56.4921 61.4004 58.7125 61.3627 61.3964C61.3627 64.0998 59.4563 66.3008 57.0594 66.3008Z" fill="#071619"/>
<path d="M72.97 66.3008C70.6109 66.3008 68.6669 64.0998 68.6669 61.3964C68.6669 58.6932 70.573 56.4921 72.97 56.4921C75.3859 56.4921 77.311 58.7125 77.2733 61.3964C77.2733 64.0998 75.3859 66.3008 72.97 66.3008Z" fill="#071619"/>
<path d="M59.53 43.6132C60.92 45.4421 63.9601 50.4 65.0001 55.6C65.6179 52.8088 67.5782 46.5037 70.4769 43.6132C68.9415 43.3796 67.4095 43.2434 65.8834 43.2048C63.5987 43.2403 61.0793 43.4449 59.53 43.6132Z" fill="url(#paint0_linear_6_35)"/>
<path d="M48.3943 44.0766C48.3679 44.0882 48.3453 44.1075 48.3302 44.1326C42.1225 53.5571 40.422 62.7501 41.2562 71.829C41.26 71.8734 41.2845 71.9159 41.3185 71.9429C45.4142 74.9994 49.3815 76.8549 53.2751 78.0849C53.3374 78.1043 53.4035 78.0811 53.4431 78.0288C54.3642 76.7508 55.1852 75.403 55.8892 73.9857C55.9307 73.9027 55.891 73.8041 55.8061 73.7714C54.5038 73.2694 53.2638 72.6573 52.071 71.9622C51.9766 71.9062 51.9691 71.7691 52.0559 71.7035C52.3069 71.5123 52.558 71.3134 52.7977 71.1125C51.428 69.0927 48.6297 60.8579 48.3943 44.0766Z" fill="#071619"/>
<path fill-rule="evenodd" clip-rule="evenodd" d="M71.8471 41.0046C75.269 41.6051 78.5416 42.6535 81.5936 44.0766C81.5438 62.4179 78.5216 69.7286 77.0167 71.0914C69.2726 74.7271 60.7888 74.7271 52.9524 71.0914C52.9014 71.0682 52.841 71.076 52.7977 71.1125C51.428 69.0927 48.6297 60.8579 48.3943 44.0766C51.4481 42.6516 54.7209 41.6032 58.1408 41.0046C58.2031 40.9949 58.2654 41.0239 58.2975 41.0799C58.7203 41.8406 59.2034 42.8158 59.53 43.6132C60.92 45.4421 63.9601 50.4 65.0001 55.6C65.6179 52.8088 67.5782 46.5037 70.4769 43.6132C70.8033 42.8331 71.2695 41.8406 71.6905 41.0799C71.7226 41.022 71.7849 40.993 71.8471 41.0046ZM59.53 43.6132C61.6311 43.2868 63.7514 43.1507 65.8834 43.2048C63.5987 43.2403 61.0793 43.4449 59.53 43.6132ZM52.7561 61.3964C52.7561 64.0998 54.7001 66.3008 57.0594 66.3008C59.4563 66.3008 61.3627 64.0998 61.3627 61.3964C61.4004 58.7125 59.4752 56.4921 57.0594 56.4921C54.6624 56.4921 52.7561 58.6932 52.7561 61.3964ZM68.6669 61.3964C68.6669 64.0998 70.6109 66.3008 72.97 66.3008C75.3859 66.3008 77.2733 64.0998 77.2733 61.3964C77.311 58.7125 75.3859 56.4921 72.97 56.4921C70.573 56.4921 68.6669 58.6932 68.6669 61.3964Z" fill="#F3F0EC"/>
<path d="M77.0167 71.0914C77.0676 71.0662 77.128 71.074 77.1733 71.1107C77.4129 71.3114 77.6641 71.5123 77.9169 71.7035C78.0037 71.7691 77.9981 71.9062 77.9038 71.9622C76.7109 72.6707 75.4709 73.2694 74.1667 73.7694C74.0819 73.8023 74.044 73.9027 74.0855 73.9857C74.8047 75.401 75.6257 76.7488 76.5297 78.027C76.5674 78.0811 76.6354 78.1043 76.6977 78.0849C80.6102 76.8549 84.5775 74.9994 88.6731 71.9429C88.709 71.9159 88.7318 71.8752 88.7356 71.8309C89.7339 61.3347 87.0632 52.2171 81.6558 44.1345C81.6426 44.1075 81.6201 44.0882 81.5936 44.0766C81.5438 62.4179 78.5216 69.7286 77.0167 71.0914Z" fill="#071619"/>
<path d="M53.4431 78.0288C54.3642 76.7508 55.1852 75.403 55.8892 73.9857M53.4431 78.0288L53.3219 77.9369L53.3504 77.8465C53.3276 77.8393 53.3048 77.8321 53.2819 77.8248M53.4431 78.0288C53.4035 78.0811 53.3374 78.1043 53.2751 78.0849M53.4431 78.0288L53.3207 77.9406L53.2751 78.0849M55.8892 73.9857L51.9044 71.5046C51.6759 71.678 51.6973 72.031 51.9433 72.1772L51.9451 72.1782C53.1183 72.8619 54.3383 73.4668 55.6191 73.967M55.8892 73.9857C55.9307 73.9027 55.891 73.8041 55.8061 73.7714L55.8892 73.9857ZM53.2819 77.8248C54.1585 76.6023 54.9425 75.3164 55.6191 73.967M53.2819 77.8248C53.2681 77.8441 53.2542 77.8634 53.2403 77.8827L53.3201 77.9402M53.2819 77.8248C49.4449 76.6057 45.5368 74.773 41.5017 71.7676C40.6978 62.9424 42.3037 54.0129 48.1572 44.8583C48.3096 52.872 49.05 58.8912 49.9257 63.1801C50.7769 67.349 51.7599 69.9028 52.4676 71.0611C52.2836 71.2113 52.0944 71.3599 51.9047 71.5043L53.3201 77.9402M55.6191 73.967C55.651 73.9795 55.683 73.9919 55.715 74.0042M55.6191 73.967C55.6345 73.9362 55.6499 73.9054 55.6653 73.8745C55.6406 73.9248 55.6653 73.9843 55.715 74.0042M55.715 74.0042C55.7154 74.0044 55.7158 74.0045 55.7162 74.0047L55.7162 74.0047C55.7158 74.0045 55.7154 74.0044 55.715 74.0042ZM53.3201 77.9402L53.2751 78.0849M53.3201 77.9402L53.2751 78.0849M61.1127 61.3929L61.1127 61.3929V61.3964C61.1127 63.9944 59.2877 66.0508 57.0594 66.0508C54.8674 66.0508 53.0061 63.9929 53.0061 61.3964C53.0061 58.7985 54.831 56.7421 57.0594 56.7421C59.3081 56.7421 61.1489 58.8191 61.1127 61.3929ZM52.9117 70.8288C52.2536 69.7686 51.2729 67.2788 50.4156 63.0801C49.5248 58.7174 48.7716 52.5314 48.6467 44.2351C51.618 42.8636 54.7957 41.8504 58.1133 41.2633C58.4705 41.9109 58.866 42.7025 59.169 43.4009L59.0634 43.4124L59.3111 43.7383L59.3309 43.7645C60.7075 45.5756 63.725 50.4989 64.755 55.649L65.2442 55.654C65.5504 54.2708 66.1909 52.0103 67.1148 49.738C68.0411 47.4597 69.2406 45.1991 70.6534 43.7902L70.6884 43.7553L71.0041 43.4405L70.8333 43.4145C71.1349 42.7192 71.5199 41.9117 71.8749 41.2634C75.1949 41.8524 78.373 42.8659 81.3431 44.236C81.3097 53.3086 80.5462 59.6533 79.6067 63.8969C79.1342 66.0313 78.6179 67.6307 78.1297 68.7767C77.6511 69.9 77.2082 70.5667 76.8755 70.8815C69.2085 74.469 60.8159 74.4641 53.0576 70.8646L53.0558 70.8637C53.0098 70.8428 52.9608 70.8312 52.9117 70.8288ZM70.171 43.5679C68.7398 43.3622 67.3115 43.2412 65.8885 43.2049L65.8873 43.4547C65.8856 43.4547 65.8839 43.4548 65.8822 43.4548C67.2383 43.4894 68.5994 43.6015 69.9636 43.7911C68.6279 45.2755 67.5131 47.4307 66.6516 49.5497C65.9212 51.3462 65.3657 53.1348 65.0089 54.5028C63.8693 49.9511 61.3768 45.7442 59.9906 43.8163L70.171 43.5679ZM81.8395 44.868C86.9472 52.7475 89.4483 61.6055 88.4905 71.7672C84.4556 74.7725 80.5477 76.6052 76.6927 77.8244C75.8311 76.6006 75.0465 75.3135 74.3554 73.9646C75.6363 73.4674 76.8564 72.875 78.0314 72.1772L78.0314 72.1772C78.2828 72.0278 78.2921 71.6738 78.0677 71.5041L78.0677 71.504C77.8556 71.3437 77.6445 71.1762 77.4404 71.0076C77.7954 70.5842 78.1888 69.9137 78.5897 68.9726C79.0929 67.7914 79.6175 66.1613 80.0949 64.005C81.022 59.8171 81.7739 53.6311 81.8395 44.868ZM53.3493 77.8461L53.3213 77.9364L53.2439 77.8778C53.2639 77.8514 53.305 77.8324 53.3493 77.8461ZM77.0233 61.3929V61.3964C77.0233 63.9952 75.2166 66.0508 72.97 66.0508C70.7783 66.0508 68.9169 63.9929 68.9169 61.3964C68.9169 58.7985 70.7417 56.7421 72.97 56.7421C75.2188 56.7421 77.0595 58.8191 77.0233 61.3929ZM52.5061 61.3964C52.5061 64.2067 54.5328 66.5508 57.0594 66.5508C59.6245 66.5508 61.6118 64.2061 61.6127 61.3981C61.6511 58.6049 59.6417 56.2421 57.0594 56.2421C54.4937 56.2421 52.5061 58.5878 52.5061 61.3964ZM68.4169 61.3964C68.4169 64.2066 70.4436 66.5508 72.97 66.5508C75.5546 66.5508 77.5224 64.2054 77.5233 61.3983C77.5617 58.605 75.5525 56.2421 72.97 56.2421C70.4044 56.2421 68.4169 58.5878 68.4169 61.3964Z" stroke="url(#paint1_linear_6_35)" stroke-width="0.5"/>
<rect x="61.1001" y="60.8" width="7.8" height="1.04" fill="url(#paint2_linear_6_35)"/>
</g>
</g>
<defs>
<filter id="filter0_d_6_35" x="-1" y="-0.5" width="132" height="132" filterUnits="userSpaceOnUse" color-interpolation-filters="sRGB">
<feFlood flood-opacity="0" result="BackgroundImageFix"/>
<feColorMatrix in="SourceAlpha" type="matrix" values="0 0 0 0 0 0 0 0 0 0 0 0 0 0 0 0 0 0 127 0" result="hardAlpha"/>
<feOffset dy="6"/>
<feGaussianBlur stdDeviation="20"/>
<feComposite in2="hardAlpha" operator="out"/>
<feColorMatrix type="matrix" values="0 0 0 0 0.972549 0 0 0 0 0.329412 0 0 0 0 0 0 0 0 0.25 0"/>
<feBlend mode="normal" in2="BackgroundImageFix" result="effect1_dropShadow_6_35"/>
<feBlend mode="normal" in="SourceGraphic" in2="effect1_dropShadow_6_35" result="shape"/>
</filter>
<linearGradient id="paint0_linear_6_35" x1="65.0001" y1="43.25" x2="65.0001" y2="55.6" gradientUnits="userSpaceOnUse">
<stop stop-color="#F85F00"/>
<stop offset="1" stop-color="#FB7E02"/>
</linearGradient>
<linearGradient id="paint1_linear_6_35" x1="65.564" y1="35.9194" x2="64.552" y2="78.0809" gradientUnits="userSpaceOnUse">
<stop stop-color="#F85400"/>
<stop offset="1" stop-color="#FC9104"/>
</linearGradient>
<linearGradient id="paint2_linear_6_35" x1="65.092" y1="60.6575" x2="65.0871" y2="61.8403" gradientUnits="userSpaceOnUse">
<stop stop-color="#F85400"/>
<stop offset="1" stop-color="#FC9104"/>
</linearGradient>
</defs>
</svg>
